<svg xmlns="http://www.w3.org/2000/svg" viewBox="0 0 63.53 63.52">
  <g id="Camada_1" data-name="Camada 1">
    <path d="M0,31.53C-.06,14.27,14.22.06,31.7,0A31.76,31.76,0,1,1,0,31.53ZM27.4,16.64c-2.94.23-5.9.35-8.82.74A65.27,65.27,0,0,0,12,18.78a2.73,2.73,0,0,0-2.11,2.27,2.93,2.93,0,0,0,3.67,3.42A54.81,54.81,0,0,1,33,23a43.28,43.28,0,0,1,17.58,5.11,2.93,2.93,0,0,0,2.58.23A2.76,2.76,0,0,0,55,25.93a2.91,2.91,0,0,0-1.62-3,38.66,38.66,0,0,0-8.66-3.69A66.45,66.45,0,0,0,27.4,16.64Zm-.06,11.09A48.15,48.15,0,0,0,14.06,29.4a2.73,2.73,0,0,0-1.83,1.39,2.31,2.31,0,0,0,.33,2.71,2.54,2.54,0,0,0,2.84.72,41.2,41.2,0,0,1,19.52-.69A35.32,35.32,0,0,1,46.7,37.91a2.54,2.54,0,0,0,2.14.32,2.33,2.33,0,0,0,1.72-2,2.46,2.46,0,0,0-1.38-2.57A43.87,43.87,0,0,0,27.34,27.73Zm-.6,10.39h-.9A51.29,51.29,0,0,0,15,39.49a2,2,0,1,0,.77,3.9c1.91-.31,3.8-.72,5.72-1a38.79,38.79,0,0,1,10.38,0,31.71,31.71,0,0,1,11.67,4,2.41,2.41,0,0,0,1.26.31,1.92,1.92,0,0,0,1.79-1.62A2,2,0,0,0,45.5,43,35.12,35.12,0,0,0,26.74,38.12Z" style="fill: white"></path>
  </g>
</svg>
