<svg xmlns="http://www.w3.org/2000/svg" viewBox="0 0 288.7 202.46"><defs><style>.cls-1,.cls-2{fill:#fff;stroke:#fff;}.cls-1{stroke-miterlimit:10;}</style></defs><g id="Camada_1" data-name="Camada 1"><path class="cls-1" d="M21.1,111.41a.53.53,0,0,1-.15.19,1,1,0,0,0-.32.39,41.38,41.38,0,0,1-4.74,8.28.92.92,0,0,0,.14,1.26,103,103,0,0,1,8.55,7.89.92.92,0,0,1-.07,1.32l-.24.21a.91.91,0,0,1-1.28-.07,95.44,95.44,0,0,0-8.17-7.82.91.91,0,0,0-1.28.11,43.25,43.25,0,0,1-9.12,8A.93.93,0,0,1,3.26,131l-.08-.09a.91.91,0,0,1,.19-1.4,39.46,39.46,0,0,0,14.18-15.71.91.91,0,0,0-.83-1.3H5.81a.92.92,0,0,1-.92-.92h0a.92.92,0,0,1,.92-.92H19.19l.35-.13Z"/><path class="cls-1" d="M3.93,132.08a1.67,1.67,0,0,1-1.26-.55l0-.05A1.75,1.75,0,0,1,2.14,130,1.7,1.7,0,0,1,3,128.81a38.28,38.28,0,0,0,13.87-15.37.07.07,0,0,0,0-.09.12.12,0,0,0-.1-.06H5.81a1.72,1.72,0,0,1,0-3.44H19l.56-.22,2.51,1.42-.26.65a1.23,1.23,0,0,1-.4.53c-.07,0-.08.08-.08.08a43.28,43.28,0,0,1-4.83,8.44s-.05.11,0,.15a104.12,104.12,0,0,1,8.62,8,1.65,1.65,0,0,1,.47,1.26,1.74,1.74,0,0,1-.59,1.22l-.24.21a1.72,1.72,0,0,1-2.41-.14,93.64,93.64,0,0,0-8.09-7.74.1.1,0,0,0-.15,0,43.27,43.27,0,0,1-9.3,8.12A1.71,1.71,0,0,1,3.93,132.08Zm1.88-20.62a.11.11,0,0,0,0,.22H16.72a1.73,1.73,0,0,1,1.56,2.46,40.11,40.11,0,0,1-14.49,16,.08.08,0,0,0,0,.07.1.1,0,0,0,0,.09l.1.09a.1.1,0,0,0,.14,0,42.57,42.57,0,0,0,8.93-7.81,1.71,1.71,0,0,1,2.4-.19,91.62,91.62,0,0,1,8.25,7.89.12.12,0,0,0,.16,0l.24-.22a.1.1,0,0,0,0-.08.13.13,0,0,0,0-.08,102.53,102.53,0,0,0-8.47-7.82,1.72,1.72,0,0,1-.28-2.35,41.41,41.41,0,0,0,4.65-8.13v0l-.43-.24-.13,0Zm14.64-.5Z"/><path class="cls-1" d="M47.55,113.19a.33.33,0,0,1-.15.2.89.89,0,0,0-.28.45,35.84,35.84,0,0,1-3.38,7.8.9.9,0,0,0,.3,1.23c.67.41,1.37.85,2,1.28a.89.89,0,0,1,.25,1.22l-.15.24a.91.91,0,0,1-1.29.25c-.63-.45-1.33-.91-2-1.34a.89.89,0,0,0-1.19.23,25.36,25.36,0,0,1-8.59,7.2.91.91,0,0,1-1.06-.17l-.08-.09a.89.89,0,0,1,.21-1.42,25.47,25.47,0,0,0,7.65-6.3.9.9,0,0,0-.25-1.37c-1.34-.71-2.67-1.34-4-1.89a.89.89,0,0,1-.39-1.33h0a.89.89,0,0,1,1-.34,42.86,42.86,0,0,1,4.67,2.09.89.89,0,0,0,1.18-.32,27.19,27.19,0,0,0,2.44-5.24.91.91,0,0,0-.85-1.2H36.21a.89.89,0,0,0-.76.43,29.48,29.48,0,0,1-5.38,6.49.88.88,0,0,1-1.15,0l-.08-.06a.9.9,0,0,1,0-1.38,28.82,28.82,0,0,0,7.35-10.71.9.9,0,0,1,1-.56L39,109a.45.45,0,0,1-.33.31.94.94,0,0,0-.59.49c-.2.45-.44,1-.68,1.47a.9.9,0,0,0,.81,1.29h7.51l.37-.11Z"/><path class="cls-1" d="M32.64,132.86a1.73,1.73,0,0,1-1.24-.53l-.06-.07a1.7,1.7,0,0,1,.4-2.7,24.66,24.66,0,0,0,7.41-6.1.16.16,0,0,0,0-.1.11.11,0,0,0,0,0c-1.36-.72-2.65-1.33-3.93-1.86a1.67,1.67,0,0,1-1-1.07,1.69,1.69,0,0,1,.22-1.45,1.71,1.71,0,0,1,2-.65,49.06,49.06,0,0,1,4.75,2.13.08.08,0,0,0,.12,0,26.83,26.83,0,0,0,2.37-5.08.1.1,0,0,0,0-.09.09.09,0,0,0-.08,0H36.21a.09.09,0,0,0-.07,0,30.75,30.75,0,0,1-5.54,6.68,1.69,1.69,0,0,1-2.19,0l-.08-.07a1.68,1.68,0,0,1-.63-1.29,1.73,1.73,0,0,1,.59-1.32,27.92,27.92,0,0,0,7.13-10.39,1.69,1.69,0,0,1,2-1l2.68.62-.31.85a1.26,1.26,0,0,1-.84.81.24.24,0,0,0-.11.06c-.2.45-.44,1-.68,1.48a.07.07,0,0,0,0,.09.1.1,0,0,0,.08,0H45.6l.57-.16,2.29,1.14-.12.6a1.09,1.09,0,0,1-.43.68s0,0,0,0a36.07,36.07,0,0,1-3.46,8,.11.11,0,0,0,0,.13c.73.44,1.43.89,2,1.3A1.69,1.69,0,0,1,47,125.8l-.15.25a1.72,1.72,0,0,1-2.43.47q-.83-.58-2-1.32s-.09,0-.12,0a26.34,26.34,0,0,1-8.86,7.43A1.83,1.83,0,0,1,32.64,132.86Zm3.23-13.07a.09.09,0,0,0-.08,0,.12.12,0,0,0,0,.08.06.06,0,0,0,0,0c1.32.55,2.65,1.18,4.06,1.93a1.69,1.69,0,0,1,.87,1.16,1.72,1.72,0,0,1-.37,1.44A26.31,26.31,0,0,1,32.5,131a.1.1,0,0,0,0,.07.12.12,0,0,0,0,.08l.09.09a.11.11,0,0,0,.11,0,24.46,24.46,0,0,0,8.32-7,1.7,1.7,0,0,1,2.27-.42c.78.5,1.47,1,2,1.36a.09.09,0,0,0,.08,0,.1.1,0,0,0,.06,0l.15-.24a.09.09,0,0,0,0-.13c-.58-.39-1.26-.83-2-1.25a1.7,1.7,0,0,1-.57-2.33,34.73,34.73,0,0,0,3.3-7.63l0-.1-.37-.18-.18.05H38.21a1.71,1.71,0,0,1-1.54-2.44c.24-.49.47-1,.67-1.44l0,0-.33-.07a.09.09,0,0,0-.11.07,29.83,29.83,0,0,1-7.57,11,.09.09,0,0,0,0,.07s0,.07,0,.07l.07.07a.13.13,0,0,0,.12,0,29.26,29.26,0,0,0,5.23-6.32,1.69,1.69,0,0,1,1.44-.8h7.41a1.71,1.71,0,0,1,1.62,2.26,28.6,28.6,0,0,1-2.52,5.39,1.71,1.71,0,0,1-2.24.63,43.56,43.56,0,0,0-4.58-2.06Zm12-5.75Zm-9.45-5.48Z"/><path class="cls-1" d="M53.58,116.59a40.46,40.46,0,0,1,6.19,2,.61.61,0,0,1,.31.83l-.27.58a.62.62,0,0,1-.81.3,42.06,42.06,0,0,0-6-2,.61.61,0,0,1-.39-.87l.24-.51A.62.62,0,0,1,53.58,116.59Zm1.93,12.8c8-2.84,13.73-7.34,17.22-14.7a.61.61,0,0,1,.93-.24c.2.15.41.31.61.44a.63.63,0,0,1,.2.78c-3.59,7.55-9.74,12.44-17.53,15.28a.65.65,0,0,0-.39.43.65.65,0,0,1-.29.39l-1-1.43A.62.62,0,0,1,55.51,129.39Zm1-19.47a44.93,44.93,0,0,1,6.15,2.23A.62.62,0,0,1,63,113l-.29.54a.62.62,0,0,1-.81.27A44.36,44.36,0,0,0,56,111.56a.62.62,0,0,1-.38-.88l.23-.44A.61.61,0,0,1,56.55,109.92Zm12.53-.68a23.7,23.7,0,0,1,2.74,3.06.62.62,0,0,1-.14.87l-.05,0a.63.63,0,0,1-.88-.14,24.6,24.6,0,0,0-2.53-2.92.62.62,0,0,1,.06-.94h0A.63.63,0,0,1,69.08,109.24Zm3.76-1.63a26.38,26.38,0,0,1,2.73,3,.63.63,0,0,1-.12.88l0,0a.62.62,0,0,1-.87-.12,24.85,24.85,0,0,0-2.55-2.9.62.62,0,0,1,0-.93h0A.62.62,0,0,1,72.84,107.61Z"/><path class="cls-1" d="M56,132.79l-1.45-2a1.43,1.43,0,0,1-.21-1.25,1.47,1.47,0,0,1,.89-.93h0c8.2-2.92,13.52-7.46,16.76-14.29a1.42,1.42,0,0,1,2.15-.53l.58.42A1.43,1.43,0,0,1,75.2,116c-3.47,7.3-9.49,12.57-17.9,15.66a1.44,1.44,0,0,1-.68.81Zm0-2.73.26.36a1.26,1.26,0,0,1,.39-.22c8-2.92,13.71-7.88,17-14.74l-.32-.23C70,122.3,64.43,127,56,130.06Zm3.25-8.85a1.52,1.52,0,0,1-.59-.12,39.21,39.21,0,0,0-5.84-2,1.43,1.43,0,0,1-.92-2l.25-.51a1.43,1.43,0,0,1,1.61-.76,41.57,41.57,0,0,1,6.33,2.1,1.43,1.43,0,0,1,.71,1.92l-.27.57A1.42,1.42,0,0,1,59.26,121.21Zm-5.8-3.63a42.81,42.81,0,0,1,5.7,2l.11-.24a39.27,39.27,0,0,0-5.73-1.89Zm-.07-.21Zm8.75-2.69a1.36,1.36,0,0,1-.61-.14,42.11,42.11,0,0,0-5.78-2.2,1.48,1.48,0,0,1-.91-.82,1.46,1.46,0,0,1,0-1.21l.23-.44a1.42,1.42,0,0,1,1.65-.72h0A47.62,47.62,0,0,1,63,111.41a1.46,1.46,0,0,1,.75.85,1.4,1.4,0,0,1-.1,1.13l-.29.54A1.43,1.43,0,0,1,62.14,114.68Zm-5.72-3.83A46.6,46.6,0,0,1,62.06,113l.12-.21a43.92,43.92,0,0,0-5.7-2.06Zm14.84,3.29-.21,0a1.46,1.46,0,0,1-1-.57,24.06,24.06,0,0,0-2.44-2.82,1.43,1.43,0,0,1,2-2.08h0a23.39,23.39,0,0,1,2.85,3.18,1.43,1.43,0,0,1-.3,2l-.06,0A1.44,1.44,0,0,1,71.26,114.14ZM75,112.47a1.44,1.44,0,0,1-1.15-.57,25.15,25.15,0,0,0-2.46-2.8A1.46,1.46,0,0,1,71,108a1.43,1.43,0,0,1,2.4-1,28.05,28.05,0,0,1,2.82,3.12,1.43,1.43,0,0,1-.28,2l-.05,0A1.44,1.44,0,0,1,75,112.47Zm-2.74-4.27Z"/><path class="cls-1" d="M99.67,116.29H93.34a.86.86,0,0,0-.86.87l.1,12.23c0,2.59-1.61,2.79-6,2.76a.86.86,0,0,1-.83-.66v0a.87.87,0,0,1,.85-1.07c1.44,0,2.83,0,3.21,0a1,1,0,0,0,.94-1l-.09-9.08a.87.87,0,0,0-1.53-.55,39.7,39.7,0,0,1-9.45,8.42.86.86,0,0,1-1.1-.18l-.12-.14a.85.85,0,0,1,.2-1.3,37,37,0,0,0,9.84-8.88.86.86,0,0,0-.69-1.37h-8.2a.87.87,0,0,1-.86-.87v-.1a.87.87,0,0,1,.86-.87H89.66a.86.86,0,0,0,.86-.87l0-4a.87.87,0,0,1,.9-.87l1.68.07a.47.47,0,0,1-.26.38.92.92,0,0,0-.41.8l0,3.68a.87.87,0,0,0,.87.85h6.37a.87.87,0,0,1,.86.87v.1A.87.87,0,0,1,99.67,116.29Z"/><path class="cls-1" d="M87.33,133h-.8a1.7,1.7,0,0,1-1.31-2.73,1.73,1.73,0,0,1,1.32-.63c1.94,0,2.89,0,3.12,0s.23-.12.22-.15l-.08-9.11s0,0,0-.06,0,0,0,0a40.71,40.71,0,0,1-9.65,8.59,1.66,1.66,0,0,1-2.14-.34l-.11-.12a1.66,1.66,0,0,1,.38-2.52,36.56,36.56,0,0,0,9.62-8.68c0-.09,0-.09,0-.09h-8.2a1.67,1.67,0,0,1-1.67-1.67v-.1a1.67,1.67,0,0,1,1.67-1.67H89.66l.86-.07h-.81l0-4a1.66,1.66,0,0,1,1.73-1.69l2.53.11-.08.84a1.27,1.27,0,0,1-.65,1,.36.36,0,0,0,0,.1l0,3.67a.06.06,0,0,0,.06.06h6.37a1.67,1.67,0,0,1,1.67,1.67v.1a1.67,1.67,0,0,1-1.67,1.67H93.34l-.06.06.1,12.24a3.18,3.18,0,0,1-.8,2.45C91.62,132.82,89.93,133,87.33,133Zm-.8-1.75-.84.26.78-.2s0,.07.07.07c2.4,0,4.29,0,4.9-.63.15-.16.35-.46.33-1.3l-.1-12.24a1.67,1.67,0,0,1,1.67-1.69h6.33a.06.06,0,0,0,.06-.06v-.1a.06.06,0,0,0-.06-.06H93.3a1.68,1.68,0,0,1-1.67-1.65l0-3.68a1.73,1.73,0,0,1,0-.45h-.29l-.06.06,0,4a1.64,1.64,0,0,1-.48,1.2,1.7,1.7,0,0,1-1.18.49H79.55a.06.06,0,0,0,0,.06v.1s0,.06,0,.06h8.2a1.68,1.68,0,0,1,1.5.93,1.66,1.66,0,0,1-.16,1.74A38.09,38.09,0,0,1,79,127.23l-.62.61.6-.53.13.15a0,0,0,0,0,.06,0,38.8,38.8,0,0,0,9.25-8.23,1.68,1.68,0,0,1,3,1l.08,9.08a1.73,1.73,0,0,1-1.65,1.8C89.3,131.22,87.35,131.22,86.53,131.21Z"/><path class="cls-1" d="M105.08,116.59a40.46,40.46,0,0,1,6.19,2,.62.62,0,0,1,.31.83l-.27.58a.62.62,0,0,1-.81.3,42.06,42.06,0,0,0-6-2,.62.62,0,0,1-.4-.87l.25-.51A.62.62,0,0,1,105.08,116.59Zm1.93,12.8c8-2.84,13.73-7.34,17.21-14.7a.62.62,0,0,1,.94-.24l.6.44a.63.63,0,0,1,.21.78c-3.59,7.55-9.74,12.44-17.53,15.28a.65.65,0,0,0-.39.43.63.63,0,0,1-.3.39l-1-1.43A.62.62,0,0,1,107,129.39Zm1-19.47a45.92,45.92,0,0,1,6.15,2.23.62.62,0,0,1,.28.86l-.29.54a.63.63,0,0,1-.81.27,44,44,0,0,0-5.9-2.26.62.62,0,0,1-.38-.88l.23-.44A.63.63,0,0,1,108.05,109.92Zm12.52-.68a23,23,0,0,1,2.75,3.06.62.62,0,0,1-.14.87l-.05,0a.63.63,0,0,1-.88-.14,25.55,25.55,0,0,0-2.53-2.92.62.62,0,0,1,.06-.94h0A.62.62,0,0,1,120.57,109.24Zm3.76-1.63a25.55,25.55,0,0,1,2.74,3,.63.63,0,0,1-.13.88l0,0a.61.61,0,0,1-.86-.12,25.82,25.82,0,0,0-2.55-2.9.62.62,0,0,1,0-.93h0A.61.61,0,0,1,124.33,107.61Z"/><path class="cls-1" d="M107.51,132.79l-1.45-2a1.39,1.39,0,0,1-.21-1.25,1.45,1.45,0,0,1,.89-.93h0c8.2-2.92,13.52-7.46,16.76-14.29a1.42,1.42,0,0,1,2.15-.53l.58.42a1.43,1.43,0,0,1,.47,1.79c-3.47,7.3-9.5,12.57-17.9,15.66a1.42,1.42,0,0,1-.69.81Zm0-2.73.26.36a1.16,1.16,0,0,1,.39-.22c8-2.92,13.71-7.88,17-14.74l-.32-.23C121.45,122.3,115.93,127,107.51,130.06Zm3.24-8.85a1.51,1.51,0,0,1-.58-.12,39.61,39.61,0,0,0-5.84-2,1.42,1.42,0,0,1-.94-.78,1.43,1.43,0,0,1,0-1.23l.25-.51a1.43,1.43,0,0,1,1.61-.76,41.44,41.44,0,0,1,6.32,2.1,1.43,1.43,0,0,1,.77.81,1.47,1.47,0,0,1,0,1.11l-.27.57A1.42,1.42,0,0,1,110.75,121.21ZM105,117.58a43.3,43.3,0,0,1,5.7,2l.11-.24a40.08,40.08,0,0,0-5.73-1.89Zm-.07-.21Zm8.75-2.69a1.36,1.36,0,0,1-.61-.14,42.11,42.11,0,0,0-5.78-2.2,1.48,1.48,0,0,1-.91-.82,1.43,1.43,0,0,1,0-1.21l.23-.44a1.42,1.42,0,0,1,1.65-.72h0a46.94,46.94,0,0,1,6.26,2.26,1.43,1.43,0,0,1,.66,2l-.29.54A1.43,1.43,0,0,1,113.64,114.68Zm-5.72-3.83a46.6,46.6,0,0,1,5.64,2.16l.12-.21a43.92,43.92,0,0,0-5.7-2.06Zm14.84,3.29-.21,0a1.46,1.46,0,0,1-1-.57,24.06,24.06,0,0,0-2.44-2.82,1.43,1.43,0,0,1-.43-1.12,1.4,1.4,0,0,1,.56-1,1.43,1.43,0,0,1,1.83.08h0a23.39,23.39,0,0,1,2.85,3.18,1.43,1.43,0,0,1-.31,2l0,0A1.44,1.44,0,0,1,122.76,114.14Zm3.77-1.67a1.44,1.44,0,0,1-1.15-.57,26.21,26.21,0,0,0-2.46-2.8,1.46,1.46,0,0,1-.43-1.1,1.43,1.43,0,0,1,2.39-1,27.18,27.18,0,0,1,2.83,3.12,1.44,1.44,0,0,1,.28,1.06,1.46,1.46,0,0,1-.57,1l0,0A1.44,1.44,0,0,1,126.53,112.47Zm-2.74-4.27Z"/><path class="cls-1" d="M148.47,111.84a27,27,0,0,0-2.12-2.39.61.61,0,0,1,.05-.91h0a.62.62,0,0,1,.79,0,21.05,21.05,0,0,1,3.06,3.54l-.51.38.21.1a.65.65,0,0,1-.17.2.6.6,0,0,0-.26.38c-2.08,9.83-7.18,15.78-15.65,18.89a.61.61,0,0,1-.71-.21l-.4-.53a.61.61,0,0,1,.27-1c7.7-2.82,12.39-8.32,14.05-15.79a.61.61,0,0,0-.6-.74H130.66a.6.6,0,0,1-.61-.6v-.62a.61.61,0,0,1,.61-.61h17.27l.35-.24Zm3.81-.69a19.23,19.23,0,0,0-2.43-2.88.6.6,0,0,1,.05-.92l0,0a.62.62,0,0,1,.8,0,20.18,20.18,0,0,1,2.63,3,.61.61,0,0,1-.14.84l-.08.06A.61.61,0,0,1,152.28,111.15Z"/><path class="cls-1" d="M133.66,132.91a1.42,1.42,0,0,1-1.15-.59c-.12-.17-.25-.34-.38-.5a1.39,1.39,0,0,1-.26-1.26,1.42,1.42,0,0,1,.88-.95c7.26-2.66,11.79-7.69,13.48-15H130.66a1.41,1.41,0,0,1-1.41-1.41v-.62a1.42,1.42,0,0,1,1.41-1.42h16.22c-.37-.42-.75-.82-1.1-1.17a1.41,1.41,0,0,1,1.95-2,21.86,21.86,0,0,1,3.19,3.69l.42.64-.5.36-.2.34-.11.16-.26.32c-2.14,9.92-7.26,16.07-16.13,19.33A1.32,1.32,0,0,1,133.66,132.91Zm-.11-1.88.18.23c8.25-3.09,13-8.89,15-18.26,0,0,0-.07,0-.1l-.41-.21-.16.12H130.86V113h15.62a1.41,1.41,0,0,1,1.11.53,1.39,1.39,0,0,1,.27,1.18A21.83,21.83,0,0,1,133.55,131Zm19.24-18.81-.24,0a1.44,1.44,0,0,1-.93-.6,19.2,19.2,0,0,0-2.33-2.75,1.42,1.42,0,0,1-.43-1.1,1.41,1.41,0,0,1,.54-1,1.43,1.43,0,0,1,1.87,0,21.39,21.39,0,0,1,2.75,3.17,1.42,1.42,0,0,1-.33,2l-.08.07A1.4,1.4,0,0,1,152.79,112.22Z"/><path class="cls-1" d="M157.53,122.61V111.43a.92.92,0,0,1,1-.93l1.58.1a.5.5,0,0,1-.22.35.84.84,0,0,0-.43.7v11a.92.92,0,0,1-.93.93h-.06A.92.92,0,0,1,157.53,122.61Zm15-13.23a.41.41,0,0,1-.22.34.94.94,0,0,0-.43.83v7.87c0,5.5-1.83,10.55-9,13.57a.92.92,0,0,1-1-.23v0a.93.93,0,0,1,.32-1.48c6.36-2.81,7.83-7.16,7.83-11.84v-8.21a.93.93,0,0,1,1-.93Z"/><path class="cls-1" d="M162.51,132.87a1.73,1.73,0,0,1-1.29-.58,1.74,1.74,0,0,1,.59-2.77c5.15-2.28,7.34-5.6,7.34-11.1v-8.21a1.71,1.71,0,0,1,.55-1.26,1.74,1.74,0,0,1,1.29-.47l2.44.15-.08.84a1.22,1.22,0,0,1-.63,1h0s0,0,0,.12v7.87c0,7-3,11.58-9.53,14.32A1.69,1.69,0,0,1,162.51,132.87Zm8.38-22.78a.19.19,0,0,0-.09,0,.13.13,0,0,0,0,.09v8.21c0,3.82-.86,9.28-8.3,12.58a.12.12,0,0,0-.08.09.11.11,0,0,0,0,.11l0,.05a.16.16,0,0,0,.1,0c5.91-2.48,8.54-6.44,8.54-12.83v-7.87a1.74,1.74,0,0,1,.06-.45Zm-12.38,14.26h-.06a1.74,1.74,0,0,1-1.73-1.74V111.43a1.75,1.75,0,0,1,.55-1.27,1.73,1.73,0,0,1,1.29-.47l2.42.16-.09.84a1.25,1.25,0,0,1-.58.93c-.05,0-.07,0-.07.06v10.93A1.74,1.74,0,0,1,158.51,124.35Zm-.06-13a.12.12,0,0,0-.08,0,.1.1,0,0,0,0,.09v11.18a.13.13,0,0,0,.12.13h.06a.13.13,0,0,0,.13-.13v-11a1.76,1.76,0,0,1,0-.33l-.21,0Zm1-1Z"/><path class="cls-2" d="M.5,195.05V146.11a6,6,0,0,1,6-6H7.93a6,6,0,0,1,6,6V183a6,6,0,0,0,5.95,5.95H38.27a6,6,0,0,1,5.95,6v.17a6,6,0,0,1-5.95,6H6.45A6,6,0,0,1,.5,195.05Z"/><path class="cls-2" d="M104.51,186.57a22.85,22.85,0,0,1-5.35,8.57,21.91,21.91,0,0,1-8.43,5.13,33.93,33.93,0,0,1-11,1.69q-12.25,0-19.3-6.78t-7-20.25V146.11a6,6,0,0,1,6-6h1.47a6,6,0,0,1,6,6v28.47q0,7.47,3.48,11.26t9.64,3.78q6.18,0,9.65-3.65T93,175v-28.9a6,6,0,0,1,6-6h1.48a6,6,0,0,1,6,6v28.38A35.36,35.36,0,0,1,104.51,186.57Z"/><path class="cls-2" d="M147.2,201.44h-3.77a5.94,5.94,0,0,1-5.52-3.74l-19.82-49.37a6,6,0,0,1,5.53-8.17h1.83A6,6,0,0,1,131,144L139.91,168a6,6,0,0,0,11.17,0L160,144a5.94,5.94,0,0,1,5.58-3.88H167a6,6,0,0,1,5.53,8.17L152.73,197.7A6,6,0,0,1,147.2,201.44Z"/><path class="cls-2" d="M185.83,195.05V146.11a6,6,0,0,1,5.95-6h1.48a6,6,0,0,1,6,6v48.94a6,6,0,0,1-6,6h-1.48A6,6,0,0,1,185.83,195.05Z"/><path class="cls-2" d="M214.43,195.05V146.11a6,6,0,0,1,5.95-6h33.9a6,6,0,0,1,6,6h0a6,6,0,0,1-6,6H233.59a6,6,0,0,0-6,6v.43a6,6,0,0,0,6,6h16.78a6,6,0,0,1,6,6h0a6,6,0,0,1-6,6H233.59a6,6,0,0,0-6,6v.87a6,6,0,0,0,6,6h21.13a6,6,0,0,1,6,6h0a6,6,0,0,1-6,6H220.38A6,6,0,0,1,214.43,195.05Z"/><path class="cls-1" d="M264.61,110a2.19,2.19,0,0,1-.75-.13,2.15,2.15,0,0,1-1.27-2.76h0s.2-.85-.76-3.66a33,33,0,0,0-2.9-6c-2.79-4.67-3.88-10.37-4.31-14.27a79.88,79.88,0,0,0-7.22,12,2.15,2.15,0,0,1-4.05-.66,48.32,48.32,0,0,0-5.93-16.07c-6.55-6.21-6.28-17.4-5.53-23.56C217.12,62.61,215,67.91,209,86.54c-2.51,7.84-5.31,11.5-8.81,11.53h0c-3.51,0-5.87-3.92-7.05-6.54C191.21,93,189,97,188,99.9a2.14,2.14,0,1,1-4-1.46c.7-1.94,4.51-11.61,10.32-11.78a2.16,2.16,0,0,1,2.1,1.46c1,2.86,2.84,5.65,3.79,5.65h0s2-.11,4.75-8.54c6.64-20.7,9.18-26.51,28.86-36.21a2.15,2.15,0,0,1,3.05,2.41c0,.17-3.86,17.07,3.73,24a2.17,2.17,0,0,1,.39.47,52.1,52.1,0,0,1,5.34,12.19c2.76-4.86,6.56-10.58,9.6-11.52a2.13,2.13,0,0,1,1.92.32,2.16,2.16,0,0,1,.86,1.75c0,.1,0,9.87,4,16.57a36.45,36.45,0,0,1,3.27,6.83c1,3,1.27,5.09.73,6.55A2.14,2.14,0,0,1,264.61,110Z"/><path class="cls-1" d="M265.61,158.65a2.15,2.15,0,0,1-1.24-3.91h0c.31-.22,7.78-5.65,8.86-17.57a2.17,2.17,0,0,1,.08-.43,38.11,38.11,0,0,1,3.62-8.28l.18-.25c.08-.1,8.13-10.1,6.58-29.13-2.28,2.68-5.41,5.31-8.57,4.69s-5.33-4.3-6.26-11.15a2,2,0,0,1,.09-1c.23-.71.53-1.53.86-2.45,3-8.27,8.91-24.8-.57-38.4-1.87,5.62-5.84,11.62-12.7,10.56a10.65,10.65,0,0,1-8.79-9.47c-.13-1.17-.26-2.48-.39-3.91C246.07,34.6,244,12.85,229.77,6c1,7,.33,21.53-18,36.49l-1.69,1.55C204.53,49.17,199.25,54,198.4,68a.41.41,0,0,0,0,.11A11.06,11.06,0,0,1,190,77.73c-3.9.79-7.53-1-9.68-4.82a13.81,13.81,0,0,1-1.67-7.33c0-.81.08-1.56.13-2.25-4.28,4.91-9.35,14.58-3,29.56a2.14,2.14,0,0,1-.33,2.22,2.17,2.17,0,0,1-2.13.71,25.35,25.35,0,0,1-7.93-3.55v8.23a2.15,2.15,0,0,1-4.3,0V87a2.15,2.15,0,0,1,4-1,11.56,11.56,0,0,0,5.08,4.22c-3.44-11.2-1-19.49,1.93-24.68a28.19,28.19,0,0,1,8.71-9.61,2.15,2.15,0,0,1,3.13,2.62,26.44,26.44,0,0,0-1,7.29A9.5,9.5,0,0,0,184,70.79c1.23,2.17,3,3.14,5.09,2.73a6.7,6.7,0,0,0,5-5.9c1-15.66,7.43-21.53,13.13-26.72.56-.52,1.13-1,1.69-1.56l.11-.09c22.43-18.32,15.78-35.62,15.71-35.8A2.15,2.15,0,0,1,227.3.57C247.63,6,250.24,33,251.64,47.57c.13,1.4.25,2.69.38,3.85a6.37,6.37,0,0,0,5.18,5.7c6.74,1,8.85-11.25,8.87-11.37a2.16,2.16,0,0,1,3.7-1.12c14.87,16,7.58,36.29,4.08,46-.25.69-.47,1.32-.67,1.88.78,5.25,2.1,6.89,2.77,7,1.57.33,5.16-3.6,7.33-7.31a2.15,2.15,0,0,1,4,.73c3.92,23.52-5.5,36.31-6.73,37.86a34.9,34.9,0,0,0-3,7c-1.35,13.83-10.28,20.2-10.66,20.47A2.13,2.13,0,0,1,265.61,158.65Z"/><path class="cls-1" d="M193,131.72c-5.37,0-9.75-4.08-9.75-9.09,0-5.2,5.72-9.09,10.83-9.09,5.38,0,9.75,4.08,9.75,9.09C203.84,127.83,198.12,131.72,193,131.72Zm1.08-13.89c-3.23,0-6.53,2.42-6.53,4.8,0,2.64,2.44,4.79,5.45,4.79,3.23,0,6.53-2.42,6.53-4.79C199.54,120,197.1,117.83,194.09,117.83Z"/><circle class="cls-1" cx="194.26" cy="122.04" r="2.02"/><path class="cls-1" d="M255.37,131.72c-5.37,0-9.74-4.08-9.74-9.09,0-5.36,5.71-9.09,10.83-9.09,5.37,0,9.74,4.08,9.74,9.09C266.2,127.83,260.49,131.72,255.37,131.72Zm1.09-13.89c-3.24,0-6.53,2.42-6.53,4.8,0,2.64,2.44,4.79,5.44,4.79,3.24,0,6.54-2.42,6.54-4.79C261.91,120,259.46,117.83,256.46,117.83Z"/><circle class="cls-1" cx="256.63" cy="122.04" r="2.02"/></g></svg>